<svg id="logo" xmlns="http://www.w3.org/2000/svg" viewBox="0 0 2052 1080">
  <path fill="#3939FF" class="logo-blueSq" d="M-.214 494.916H495V990.13H-.214z"/>
  <path fill="#40FF40" class="logo-greenSq" d="M990.214 494.916H495V-.298h495.214V434.5L1016 475l-25.786 10z"/>
  <path fill="#FF3636" class="logo-redSq" d="M-.214-.298H495v495.214H-.214z"/>
  <path fill="#1B1B1B" class="logo-geoff" d="M723.97 459.48h60.326v118.45C751.71 601.706 701.956 618 659.242 618 565.892 618 495 550.19 495 460.802c0-88.946 72.213-156.318 168.205-156.318 45.795 0 92.47 17.614 123.732 44.915l-39.19 49.756c-22.897-21.136-54.6-34.346-84.542-34.346-54.6 0-96.87 41.832-96.87 95.992 0 54.6 42.71 96.432 97.31 96.432 18.494 0 40.51-6.605 60.327-16.732V459.48zM1061.706 517.164H891.738c7.927 29.942 30.824 47.555 61.207 47.555 22.457 0 43.59-8.807 59.885-25.1l35.667 36.11c-23.78 26.42-58.564 41.83-101.276 41.83-75.737 0-123.734-48.436-123.734-120.21 0-73.094 49.76-121.53 121.974-121.53 83.22 0 121.97 55.04 116.246 141.344zm-63.41-40.07c-.878-31.264-21.133-51.518-52.398-51.518-29.942 0-50.197 20.255-55.48 51.518h107.88zM1340.428 496.468c0 72.214-51.08 121.09-126.814 121.09-76.178 0-127.257-48.876-127.257-121.09 0-72.655 51.08-120.65 127.257-120.65 75.735 0 126.814 47.996 126.814 120.65zm-186.26.88c0 38.75 24.218 65.17 59.446 65.17 34.785 0 59.003-26.42 59.003-65.17s-24.218-65.167-59.003-65.167c-35.228 0-59.446 26.42-59.446 65.17zM1462.407 368.773v19.815h55.92v47.115h-55.92v179.214h-67.37V435.703h-31.703v-47.115h31.703V366.13c0-52.84 39.63-81.02 87.184-81.02 22.02 0 45.355 5.724 62.088 16.732l-24.218 49.318c-8.806-6.605-19.814-10.127-29.5-10.127-15.855 0-28.183 8.806-28.183 27.74zM1627.97 368.773v19.815h55.92v47.115h-55.92v179.214h-67.37V435.703h-31.704v-47.115h31.703V366.13c0-52.84 39.63-81.02 87.183-81.02 22.018 0 45.354 5.724 62.087 16.732l-24.218 49.318c-8.806-6.605-19.814-10.127-29.5-10.127-15.855 0-28.183 8.806-28.183 27.74z"/>
  <path fill="#1B1B1B" class="logo-harper" d="M567.118 671.177V804.46H711.81V671.177h72.12v319.51h-72.12V864.71H567.12v125.977H495v-319.51h72.118zM995.26 990.687v-28.755c-16.432 20.54-42.905 31.95-77.14 31.95-52.49 0-84.44-31.95-84.44-76.682 0-46.103 33.318-73.49 93.568-73.944h67.555v-4.565c0-26.017-17.345-41.08-51.122-41.08-21.91 0-47.47 7.303-73.028 21.454l-21.91-48.383c36.515-18.258 68.01-28.297 110.916-28.297 65.727 0 103.613 32.864 104.067 88.09l.457 160.213h-68.92zm-.456-83.986v-21.91h-55.23c-26.93 0-40.167 8.218-40.167 27.845 0 18.713 14.605 31.038 38.34 31.038 29.67 0 52.95-15.976 57.057-36.972zM1276.428 742.384v66.184c-50.208-4.565-81.246 22.364-81.246 63.9v118.22h-70.292V745.12h70.292v44.275c16.887-30.124 44.73-46.557 81.246-47.01zM1580.414 869.272c0 74.4-45.188 124.154-114.11 124.154-34.235 0-61.164-13.693-78.966-38.343v124.154h-70.292V745.12h70.292v36.06c17.345-24.65 44.277-38.342 77.598-38.342 68.92 0 115.478 50.665 115.478 126.434zm-71.204-2.28c0-39.255-24.65-67.555-60.707-67.555-36.06 0-61.164 27.844-61.164 67.555 0 40.623 25.103 68.01 61.163 68.01 36.057 0 60.707-27.844 60.707-68.01zM1852.91 889.357h-176.188c8.217 31.038 31.952 49.297 63.447 49.297 23.277 0 45.185-9.13 62.075-26.018l36.972 37.43c-24.65 27.386-60.707 43.362-104.982 43.362-78.51 0-128.263-50.21-128.263-124.61 0-75.77 51.58-125.98 126.437-125.98 86.265 0 126.434 57.056 120.5 146.52zm-65.73-41.537c-.91-32.406-21.907-53.402-54.316-53.402-31.038 0-52.034 20.996-57.51 53.402h111.826zM2051 742.384v66.184c-50.208-4.565-81.246 22.364-81.246 63.9v118.22h-70.292V745.12h70.292v44.275c16.887-30.124 44.73-46.557 81.246-47.01z"/>
</svg>
