<svg xmlns="http://www.w3.org/2000/svg" viewBox="0 0 100 99.991">
  <path d="M92.7 52.39l-.895-.224-3.3 9.272-4.29-1.524 3.24-9.1-.93-.353c-2.553-.965-5.136-2.172-7.69-3.593l-.886-.483-4.344 7.686-3.973-2.24 4.447-7.86-.768-.524c-2.826-1.974-5.566-4.23-8.133-6.695l-.716-.69-6.274 6.223-3.214-3.232 6.324-6.273-.62-.715c-2.206-2.585-4.222-5.325-5.98-8.17l-.474-.758-8.323 3.8-1.888-4.144 8.014-3.664-.466-.93c-1.12-2.318-2.085-4.704-2.88-7.1l-.29-.88-10.747 2.5-1.032-4.437 10.597-2.467-.18-.964c-.215-1.122-.458-2.423-.612-3.734l-.112-.99-1 .095C33.763 1.294 22.87 6.42 14.65 14.64 6.428 22.86 1.302 33.75.225 45.307l-.088 1 .984.11c1.578.182 3.248.473 5.273.94l.88.198 3.713-10.46 4.302 1.523-3.646 10.254.957.335c2.602.94 5.143 2.068 7.58 3.36l.872.466 4.85-8.575 3.965 2.233-4.904 8.694.777.525c2.802 1.87 5.515 4.024 8.083 6.386l.724.664 6.772-6.722 3.198 3.238-6.775 6.722.646.724c2.24 2.508 4.283 5.162 6.065 7.886l.483.732 8.652-3.946 1.904 4.145-8.202 3.75.48.945c1.148 2.215 2.13 4.507 3.034 7.024l.31.853 10.73-2.5 1.034 4.44-10.443 2.428.214.99c.425 1.854.725 3.553.914 5.198l.12.982.99-.095C66.24 98.69 77.14 93.563 85.35 85.34c8.23-8.218 13.348-19.11 14.41-30.666l.094-1-.993-.11c-1.816-.21-3.773-.58-6.16-1.173zm0 0"/>
  <path d="M50.84 3.342l.31 1.56 6.118-1.42 1.026 4.435-5.972 1.388.37 1.06c.698 2.053 1.56 4.137 2.57 6.195l.43.89 7.6-3.467 1.887 4.154-7.24 3.3.647.993c1.56 2.41 3.16 4.584 4.902 6.633l.707.836 5.815-5.774 3.214 3.232-5.885 5.84.75.727c2.31 2.197 4.69 4.16 7.067 5.86l.913.654 3.99-7.05 3.965 2.23-4.085 7.24.898.5c2.274 1.266 4.617 2.378 6.986 3.29l.975.372 2.523-7.074 4.293 1.533-2.464 6.93 1.103.258c1.66.397 3.152.673 4.557.854l1.188.154-.035-1.198C99.58 35.69 94.39 23.67 85.36 14.63 76.336 5.61 64.307.42 51.512.033L50.323 0l.147 1.18c.086.715.23 1.456.37 2.162zm46.542 39.25c.24 1.56.404 3.146.49 4.732-.655-.104-1.317-.234-2.034-.388l1.544-4.344zM53.788 2.197l-1.043.24c-.027-.104-.042-.216-.06-.318.36.024.732.05 1.103.077zm0 0M48.762 94.595l-.214-1.008-6.3 1.465-1.032-4.436 5.963-1.388-.416-1.085c-.854-2.24-1.74-4.24-2.722-6.11l-.448-.854-7.386 3.36-1.886-4.144 6.885-3.146-.682-.99c-1.533-2.26-3.205-4.403-4.954-6.377l-.714-.8-5.37 5.324-3.213-3.232 5.37-5.325-.786-.724c-2.197-2.025-4.55-3.902-6.98-5.557l-.922-.632-3.507 6.223-3.97-2.24 3.584-6.37-.922-.48c-2.206-1.174-4.524-2.2-6.878-3.05l-.964-.363-2.11 5.927-4.292-1.524 2.025-5.705-1.137-.25c-1.32-.284-2.49-.49-3.602-.637L0 50.304l.035 1.198C.43 64.29 5.62 76.31 14.65 85.35c9.03 9.03 21.05 14.217 33.83 14.597l1.198.044-.157-1.188c-.153-1.275-.394-2.612-.758-4.207zm0 0"/>
</svg>
