<svg xmlns="http://www.w3.org/2000/svg" viewBox="-49 141 512 512">
  <path d="M305.972 361.635l-.062.062c-10.482-22.088-22.25-35.59-37.238-47.565l-52.337 52.33c-5.848 5.848-5.84 15.357-.015 21.182.018.018.022.042.04.06 17.536 17.566 17.526 46.05-.026 63.602l-98.57 98.57c-16.962 16.962-46.67 16.962-63.632 0-17.587-17.588-17.587-46.047 0-63.634l29.27-29.27c-13.514-24.244-21.39-51.346-21.39-79.92 0-9.78 1.156-19.35 2.806-28.783l-74.333 74.325c-52.646 52.632-52.646 138.296 0 190.928 52.63 52.63 138.284 52.644 190.928 0C265.17 529.755 286.785 513.098 302.87 483.08c21.393-39.684 21.993-81.876 3.102-121.445z"/>
  <path d="M423.4 180.6c-52.5-52.8-138-52.8-190.8 0L131.63 281.577c-60.53 60.53-47.386 158.707 11.398 200.7l52.202-52.2c5.196-5.2 6.032-14.593 0-21.3-11.448-11.05-15.215-29.246-12.902-33.9.732-27.2 27.462-44.267 113.872-130.677 42.02-42.02 106.277 22.396 63.6 63.6l-31.756 31.763c19.808 35.52 25.097 71.333 18.61 108.59L423.4 371.4c52.8-52.5 52.8-138.3 0-190.8z"/>
</svg>
