<svg xmlns="http://www.w3.org/2000/svg" viewBox="0 0 80 70.24">
  <path d="M47.6 46.28c0 1.517-1.236 2.757-2.758 2.757H35.15c-1.522 0-2.75-1.24-2.75-2.756v-9.296H0V62.13c0 4.476 3.627 8.11 8.11 8.11h63.78c4.476 0 8.11-3.635 8.11-8.11V36.984H47.6v9.297zm0 0M71.89 17.72H8.11C3.627 17.72 0 21.353 0 25.83v7.905h32.4v-1.917c0-1.522 1.228-2.75 2.75-2.75h9.692c1.522 0 2.757 1.228 2.757 2.75v1.917H80V25.83c0-4.476-3.635-8.11-8.11-8.11zm0 0M52.778 14.418c1.642 0 2.983-1.342 2.983-2.99V7.982C55.76 3.583 52.18 0 47.78 0H32.21c-4.397 0-7.972 3.582-7.972 7.983v3.445c0 1.65 1.34 2.99 2.976 2.99 1.65 0 2.99-1.34 2.99-2.99V7.983c0-1.115.902-2.014 2.007-2.014h15.57c1.114 0 2.02.898 2.02 2.013v3.445c0 1.65 1.334 2.99 2.978 2.99zm0 0"/>
    <path d="M35.642 32.31v13.478h8.715V32.31h-8.715zm0 0"/>
</svg>
