<svg xmlns="http://www.w3.org/2000/svg" viewBox="0 0 80 70.24"><path d="M47.6 46.28a2.762 2.762 0 0 1-2.758 2.757H35.15a2.755 2.755 0 0 1-2.75-2.756v-9.296H0V62.13a8.11 8.11 0 0 0 8.11 8.11h63.78A8.115 8.115 0 0 0 80 62.13V36.984H47.6v9.297zm24.29-28.56H8.11A8.109 8.109 0 0 0 0 25.83v7.905h32.4v-1.917a2.746 2.746 0 0 1 2.75-2.75h9.692a2.752 2.752 0 0 1 2.757 2.75v1.917H80V25.83a8.115 8.115 0 0 0-8.11-8.11zm-19.112-3.302a2.992 2.992 0 0 0 2.983-2.99V7.982C55.76 3.583 52.18 0 47.78 0H32.21c-4.397 0-7.972 3.582-7.972 7.983v3.445c0 1.65 1.34 2.99 2.976 2.99 1.65 0 2.99-1.34 2.99-2.99V7.983c0-1.115.902-2.014 2.007-2.014h15.57c1.114 0 2.02.898 2.02 2.013v3.445c0 1.65 1.334 2.99 2.978 2.99zm0 0"/><path d="M35.642 32.31v13.478h8.715V32.31h-8.715zm0 0"/></svg>