<svg xmlns="http://www.w3.org/2000/svg" viewBox="0 0 61.708 100">
  <path d="M29.254 66.71L16.578 59.28c-.692.083-1.384.22-2.073.417-3.31.95-8.097 3.675-12.108 11.26-3.185 6.022-2.01 11.18-.973 15.727.99 4.348 1.774 7.784-1.138 11.22-.286.338-.365.804-.203 1.218.1.26.286.47.518.605.14.08.293.133.456.154 7.367.924 18.393-3.42 25.194-15.146 3.09-5.326 4.415-10.447 3.836-14.81-.15-1.136-.434-2.21-.832-3.213zm-12.424.804M58.916.756c-2.542-1.475-5.793-.732-7.442 1.7-1.038 1.53-25.433 37.51-28.575 42.927-1.57 2.707-3.34 7.104-4.813 11.122l12.678 7.432c2.76-3.275 5.71-7.012 7.304-9.758C41.245 48.7 60.325 9.717 61.136 8.06c1.292-2.64.322-5.83-2.22-7.304zm0 0"/>
</svg>
